# xmcd
#
# Track frame offsets: 
#        150
#        28554
#        44610
#        61727
#        74706
#        98150
#        119937
#        137027
#        154687
#        181738
#        192898
#        217131
#        234828
#
# Disc length: 3320 seconds
#
# Revision: 11
# Processed by: cddbd v1.5.2PL0 Copyright (c) Steve Scherf et al.
# Submitted via: ExactAudioCopy v1.0b4
#
DISCID=be0cf60d
DTITLE=Various Artist - White Boys Blues [CD 1,2)
DYEAR=1999
DGENRE=Blues
TTITLE0=Alvin Lee - Alvin Lee - Long Legs
TTITLE1=Jack Bruce - Jack Bruce - Send For Me
TTITLE2=Canned Heat - Canned Heat - Creole Queen
TTITLE3=Ian Anderson - Ian Anderson - Man Of The World
TTITLE4=Hadden Sayers - Hadden Sayers - End Of The Road
TTITLE5=Southside Johnny - Southside Johnny - Baby When The Sun Goes D
TTITLE5=own
TTITLE6=The Pretty Things - The Pretty Things - Judgement Day
TTITLE7=Savoy Brown - Savoy Brown - Sweet Loving Thing
TTITLE8=Hadden Sayers - Hadden Sayers - Big Shot
TTITLE9=Linek - Linek - Railway Ride
TTITLE10=Harvey Mandel - Harvey Mandel - Ramblin' Pony
TTITLE11=Mick and Chris Jagger - Mick and Chris Jagger - Racketeer Blues
TTITLE12=Ken Hensley - Ken Hensley - Hellhound On My Trail
EXTD=
EXTT0=
EXTT1=
EXTT2=
EXTT3=
EXTT4=
EXTT5=
EXTT6=
EXTT7=
EXTT8=
EXTT9=
EXTT10=
EXTT11=
EXTT12=
PLAYORDER=
